<svg width="138" height="38" viewBox="0 0 138 38" fill="none" xmlns="http://www.w3.org/2000/svg">
<path d="M8.86133 37.998C8.50476 37.998 8.15681 37.9941 7.80304 37.9874C7.07017 37.9793 6.33902 37.9251 5.61558 37.8254C4.941 37.7267 4.28752 37.5433 3.67669 37.2811C3.07145 37.021 2.51943 36.68 2.04177 36.2712C1.5572 35.8671 1.15376 35.3985 0.847464 34.8839C0.537789 34.3659 0.323475 33.8107 0.211989 33.2376C0.0915931 32.6218 0.026454 31.9991 0.0171333 31.3749C0.00971352 31.1654 0 30.4679 0 30.4679V7.51947C0 7.51947 0.0103455 6.83262 0.0171918 6.63083C0.0261163 6.00764 0.0908766 5.38594 0.210912 4.77109C0.322605 4.19642 0.537084 3.63961 0.846926 3.11994C1.1521 2.60566 1.55329 2.13669 2.03495 1.7312C2.51606 1.32186 3.06985 0.979111 3.67611 0.715465C4.28554 0.454082 4.93779 0.271929 5.611 0.175109C6.33682 0.0743431 7.07051 0.0198644 7.80592 0.0121296L8.86191 0H129.132L130.201 0.0126163C130.93 0.0199668 131.657 0.0739595 132.376 0.174135C133.056 0.27217 133.715 0.455594 134.331 0.718376C135.546 1.2497 136.534 2.0903 137.158 3.12236C137.463 3.63845 137.674 4.19072 137.784 4.76042C137.905 5.38031 137.973 6.0069 137.987 6.6352C137.991 6.91653 137.991 7.21873 137.991 7.51947C138 7.892 138 8.24658 138 8.60407V29.3949C138 29.7558 138 30.1079 137.991 30.463C137.991 30.786 137.991 31.082 137.986 31.3866C137.973 32.0036 137.906 32.619 137.786 33.2278C137.677 33.8051 137.464 34.3646 137.154 34.8868C136.846 35.3959 136.445 35.8605 135.966 36.2634C135.488 36.6745 134.935 37.0175 134.328 37.2792C133.713 37.5434 133.055 37.7275 132.376 37.8254C131.652 37.9257 130.921 37.9798 130.188 37.9874C129.846 37.9941 129.487 37.998 129.138 37.998L127.869 38L8.86133 37.998Z" fill="white"/>
<path fill-rule="evenodd" clip-rule="evenodd" d="M75.4453 28.2011C73.7743 28.2011 72.5514 27.3926 72.4106 26.1611L70.4659 26.161C70.5887 28.4071 72.4894 29.828 75.3045 29.828C78.3133 29.828 80.204 28.373 80.204 26.0497C80.204 24.2333 79.1229 23.2099 76.5185 22.6073L75.1199 22.2714C73.4837 21.8759 72.8149 21.3593 72.8149 20.4814C72.8149 19.3798 73.8621 18.623 75.3924 18.623C76.9228 18.623 77.9699 19.371 78.0847 20.6103H80.0024C79.9405 18.4677 78.1017 16.996 75.4184 16.996C72.7091 16.996 70.8004 18.4677 70.8004 20.6103C70.8004 22.3408 71.8825 23.4072 74.2135 23.958L75.8586 24.3457C77.5038 24.7412 78.1985 25.3183 78.1985 26.2822C78.1985 27.3925 77.0466 28.2011 75.4453 28.2011ZM42.3494 26.2646H37.5108L36.3488 29.6211H34.2994L38.8824 17.2031H41.0117L45.5947 29.6211H43.5104L42.3494 26.2646ZM38.012 24.7158H41.8473L39.9566 19.2686H39.9037L38.012 24.7158ZM51.6303 29.7158C53.9532 29.7158 55.4925 27.9082 55.4925 25.0947C55.4925 22.2891 53.9442 20.4727 51.5953 20.4727C50.3866 20.4345 49.2544 21.0495 48.6484 22.0732H48.6135V20.5674H46.7747V32.6162H48.6744V28.1318H48.7183C49.2985 29.162 50.4295 29.7773 51.6303 29.7158ZM53.54 25.0947C53.54 23.2617 52.5716 22.0566 51.0942 22.0566C49.6427 22.0566 48.6664 23.2871 48.6664 25.0947C48.6664 26.919 49.6427 28.1406 51.0942 28.1406C52.5717 28.1406 53.5399 26.9443 53.5399 25.0947H53.54ZM61.8166 29.7158C64.1395 29.7158 65.6793 27.9082 65.6793 25.0947C65.6793 22.2891 64.1305 20.4727 61.7816 20.4727C60.5729 20.4345 59.4407 21.0495 58.8347 22.0732H58.7998V20.5674H56.961V32.6162H58.8607V28.1318H58.9046C59.4848 29.162 60.6158 29.7773 61.8166 29.7158ZM63.7262 25.0947C63.7262 23.2617 62.7579 22.0566 61.2805 22.0566C59.829 22.0566 58.8527 23.2871 58.8527 25.0947C58.8527 26.919 59.829 28.1406 61.2805 28.1406C62.7579 28.1406 63.7262 26.9443 63.7262 25.0947ZM84.3059 18.4248V20.5674H86.0659V22.0391H84.3059V27.0303C84.3059 27.8057 84.6583 28.167 85.432 28.167C85.6409 28.1634 85.8495 28.1491 86.0569 28.124V29.5869C85.709 29.6505 85.3555 29.6793 85.0017 29.6728C83.128 29.6728 82.3972 28.9843 82.3972 27.2285V22.0391H81.0516V20.5674H82.3972V18.4248H84.3059ZM91.4735 20.4561C88.7991 20.4561 87.0841 22.2461 87.0841 25.0947C87.0841 27.9512 88.7821 29.7334 91.4735 29.7334C94.1658 29.7334 95.8638 27.9512 95.8638 25.0947C95.8638 22.2461 94.1568 20.4561 91.4735 20.4561ZM93.9282 25.0947C93.9282 23.1406 93.0128 21.9873 91.4735 21.9873C89.9342 21.9873 89.0188 23.1494 89.0188 25.0947C89.0188 27.0566 89.9342 28.2012 91.4735 28.2012C93.0128 28.2012 93.9282 27.0566 93.9282 25.0947ZM99.242 20.5674H97.4301L97.4301 29.6211H99.3298V24.2509C99.2666 23.7077 99.4492 23.1645 99.8298 22.764C100.21 22.3635 100.751 22.1458 101.309 22.1679C101.598 22.1597 101.887 22.1976 102.163 22.2802V20.542C101.949 20.4951 101.731 20.4719 101.512 20.4726C100.468 20.4336 99.5386 21.1164 99.2859 22.1084H99.242V20.5674ZM110.922 26.9619C110.666 28.6055 109.03 29.7334 106.937 29.7334C104.244 29.7334 102.573 27.9687 102.573 25.1377C102.573 22.2979 104.253 20.4561 106.857 20.4561C109.417 20.4561 111.027 22.1768 111.027 24.9219V25.5586H104.491V25.6709C104.43 26.3449 104.668 27.0121 105.144 27.5028C105.62 27.9934 106.289 28.2602 106.981 28.2353C107.902 28.3198 108.772 27.802 109.118 26.9619L110.922 26.9619ZM109.127 24.2597H104.5C104.498 23.6485 104.746 23.0619 105.189 22.6304C105.631 22.1989 106.232 21.9583 106.857 21.9619C107.477 21.9489 108.074 22.1894 108.505 22.6256C108.936 23.0618 109.161 23.6541 109.127 24.2597Z" fill="black"/>
<path fill-rule="evenodd" clip-rule="evenodd" d="M59.5145 7.56201H60.423V13.8228H59.5145V7.56201ZM39.9267 8.67388C39.3707 8.09956 38.5808 7.7994 37.7743 7.85601H35.5712V13.8229H37.7743C39.5912 13.8229 40.6443 12.7271 40.6443 10.8209C40.746 10.0362 40.4826 9.24821 39.9267 8.67388ZM37.6685 12.979H36.5185V8.69921H37.6685C38.2418 8.66809 38.7993 8.88923 39.1886 9.30214C39.5778 9.71505 39.7581 10.2765 39.68 10.833C39.7642 11.3918 39.5865 11.9579 39.1963 12.3743C38.8061 12.7906 38.2449 13.0127 37.6685 12.979ZM41.7145 11.5693C41.6356 10.7622 42.0312 9.98112 42.7355 9.55361C43.4397 9.12609 44.3308 9.12609 45.0351 9.55361C45.7393 9.98112 46.1349 10.7622 46.056 11.5693C46.1364 12.3773 45.7412 13.16 45.0363 13.5884C44.3314 14.0168 43.4391 14.0168 42.7342 13.5884C42.0294 13.16 41.6341 12.3773 41.7145 11.5693ZM43.8867 10.0225C44.6733 10.0225 45.1216 10.5933 45.1216 11.5694H45.1216C45.1216 12.5493 44.6734 13.1197 43.8867 13.1197C43.0971 13.1197 42.6529 12.5533 42.6529 11.5694C42.6529 10.5933 43.0971 10.0225 43.8867 10.0225ZM51.8269 13.8228H50.8846L49.9332 10.5063H49.8614L48.914 13.8228H47.9806L46.7118 9.31982H47.6332L48.4578 12.7558H48.5257L49.472 9.31982H50.3435L51.2899 12.7558H51.3618L52.1823 9.31982H53.0907L51.8269 13.8228ZM55.0324 9.31983H54.1579L54.1579 13.8228H55.0663V11.1885C55.0337 10.8888 55.1365 10.5902 55.3478 10.3708C55.559 10.1515 55.8577 10.0334 56.1654 10.0474C56.8372 10.0474 57.1587 10.4072 57.1587 11.1309V13.8227H58.0671V10.9077C58.1337 10.4674 57.992 10.0214 57.6821 9.69561C57.3721 9.3698 56.9275 9.19954 56.4739 9.23291C55.8879 9.18632 55.3363 9.50849 55.1003 10.0352H55.0324V9.31983ZM62.7069 9.55352C62.0026 9.98104 61.6069 10.7622 61.6858 11.5693C61.6054 12.3774 62.0008 13.16 62.7057 13.5884C63.4106 14.0168 64.3029 14.0168 65.0078 13.5884C65.7127 13.16 66.1081 12.3774 66.0277 11.5693C66.1066 10.7622 65.7109 9.98104 65.0066 9.55352C64.3023 9.126 63.4112 9.126 62.7069 9.55352ZM65.0928 11.5694C65.0928 10.5933 64.6446 10.0225 63.858 10.0225C63.0684 10.0225 62.6242 10.5933 62.6242 11.5694C62.6242 12.5533 63.0684 13.1197 63.858 13.1197C64.6446 13.1197 65.0929 12.5493 65.0928 11.5694ZM68.6961 11.2051C67.601 11.2715 66.9841 11.7388 66.9841 12.5493C66.9856 12.9337 67.1533 13.2994 67.4456 13.5562C67.7379 13.8129 68.1277 13.9367 68.5184 13.897C69.0758 13.9222 69.604 13.6521 69.901 13.19H69.9729V13.8228H70.8474V10.7461C70.8474 9.79494 70.1965 9.23294 69.0425 9.23294C67.9983 9.23294 67.2546 9.72903 67.1618 10.5025H68.0412C68.1421 10.1841 68.4935 10.002 69.0006 10.002C69.6215 10.002 69.9429 10.2705 69.9429 10.7461V11.1348L68.6961 11.2051ZM69.9429 12.1646V11.7881L68.8189 11.8584C68.185 11.8999 67.8975 12.1109 67.8975 12.5078C67.8975 12.9131 68.2568 13.1489 68.751 13.1489C69.0436 13.1779 69.3356 13.0895 69.5603 12.9039C69.785 12.7184 69.923 12.4516 69.9429 12.1646ZM73.9519 9.24513C72.789 9.24513 72.0413 10.1465 72.0413 11.5694C72.0413 12.9956 72.781 13.897 73.952 13.897C74.5456 13.9184 75.1024 13.6157 75.3974 13.1113H75.4693V13.8228H76.3398V7.56201H75.4314V10.0351H75.3635C75.0892 9.52648 74.5392 9.21866 73.9519 9.24513ZM72.9797 11.5693C72.9797 12.5244 73.4399 13.0991 74.2095 13.0991C74.9752 13.0991 75.4484 12.5161 75.4484 11.5732C75.4484 10.6348 74.9702 10.0435 74.2095 10.0435C73.4448 10.0435 72.9796 10.6221 72.9796 11.5693H72.9797ZM81.1192 9.55361C80.415 9.98112 80.0194 10.7622 80.0983 11.5693C80.0178 12.3773 80.4131 13.16 81.118 13.5884C81.8228 14.0168 82.7152 14.0168 83.42 13.5884C84.1249 13.16 84.5202 12.3773 84.4397 11.5693C84.5187 10.7622 84.123 9.98112 83.4188 9.55361C82.7146 9.12609 81.8235 9.12609 81.1192 9.55361ZM83.5053 11.5694C83.5053 10.5933 83.0571 10.0225 82.2705 10.0225C81.4809 10.0225 81.0367 10.5933 81.0367 11.5694C81.0367 12.5533 81.4809 13.1197 82.2705 13.1197C83.0571 13.1197 83.5053 12.5493 83.5053 11.5694ZM86.5331 9.31983H85.6586V13.8228H86.567V11.1885C86.5344 10.8888 86.6372 10.5902 86.8485 10.3708C87.0597 10.1515 87.3584 10.0334 87.6661 10.0474C88.3379 10.0474 88.6594 10.4072 88.6594 11.1309V13.8227H89.5678V10.9077C89.6344 10.4674 89.4927 10.0214 89.1828 9.69561C88.8728 9.3698 88.4282 9.19954 87.9746 9.23291C87.3886 9.18632 86.837 9.50849 86.601 10.0352H86.5331V9.31983ZM94.7009 8.19873V9.34033H95.6981V10.0889H94.7009V12.4043C94.7009 12.876 94.8995 13.0825 95.3517 13.0825C95.4675 13.0822 95.5831 13.0753 95.6981 13.062V13.8022C95.535 13.8308 95.3697 13.846 95.204 13.8477C94.1937 13.8477 93.7914 13.5 93.7914 12.6318V10.0888H93.0607V9.34029H93.7914V8.19873H94.7009ZM97.8394 7.56201H96.939L96.939 13.8227H97.8474V11.1929C97.8193 10.8839 97.9321 10.5785 98.1555 10.3584C98.379 10.1383 98.6904 10.0259 99.0064 10.0513C99.6483 10.0513 99.9907 10.4155 99.9907 11.1348V13.8228H100.9V10.9155C100.96 10.4775 100.818 10.0361 100.511 9.71145C100.204 9.38682 99.7659 9.21281 99.3148 9.23682C98.72 9.1896 98.1587 9.51218 97.9113 10.0435H97.8394V7.56201ZM106.197 12.6069C105.942 13.4563 105.102 14.0051 104.202 13.9097C103.589 13.9255 102.999 13.6766 102.589 13.2291C102.18 12.7815 101.992 12.1805 102.076 11.5855C101.994 10.9888 102.181 10.3868 102.588 9.93546C102.996 9.4841 103.583 9.22779 104.198 9.23292C105.479 9.23292 106.252 10.0889 106.252 11.5029V11.813H103.001V11.8628C102.973 12.197 103.089 12.5275 103.323 12.7731C103.556 13.0186 103.885 13.1565 104.227 13.1528C104.672 13.205 105.104 12.9893 105.322 12.6069L106.197 12.6069ZM105.326 11.1558H103.001C102.997 10.8453 103.122 10.5463 103.346 10.3267C103.57 10.107 103.876 9.98537 104.193 9.98927C104.506 9.98225 104.808 10.1049 105.024 10.3271C105.24 10.5492 105.35 10.8502 105.326 11.1558Z" fill="black"/>
<path fill-rule="evenodd" clip-rule="evenodd" d="M22.9407 6.97192C23.0437 8.2866 22.6186 9.58874 21.756 10.6018C20.919 11.6201 19.6509 12.2067 18.3153 12.1932C18.2304 10.9164 18.6677 9.65893 19.5311 8.69774C20.4054 7.72354 21.6228 7.10734 22.9407 6.97192ZM27.1648 14.6966C25.6284 15.6207 24.683 17.2502 24.6597 19.0144C24.6619 21.0103 25.8838 22.8116 27.7629 23.5891C27.4015 24.7375 26.8567 25.8229 26.1488 26.8049C25.1981 28.1962 24.2012 29.5555 22.6191 29.5806C21.8666 29.5976 21.3587 29.3859 20.8294 29.1653C20.2773 28.9353 19.702 28.6955 18.8018 28.6955C17.8471 28.6955 17.246 28.943 16.6664 29.1816C16.1654 29.3879 15.6804 29.5875 14.9969 29.6153C13.4901 29.6699 12.3386 28.1304 11.3533 26.7521C9.38399 23.9375 7.85054 18.8201 9.90634 15.3381C10.8717 13.6411 12.6768 12.5641 14.6611 12.5014C15.5157 12.4842 16.3357 12.8065 17.0546 13.0889C17.6044 13.305 18.0951 13.4978 18.4969 13.4978C18.8502 13.4978 19.3272 13.3126 19.8831 13.0968C20.7588 12.7568 21.8303 12.3408 22.9221 12.4529C24.6188 12.5048 26.1911 13.3363 27.1648 14.6966Z" fill="black"/>
</svg>
