<?xml version="1.0" encoding="UTF-8"?>
<svg width="139px" height="41px" viewBox="0 0 139 41" version="1.1" xmlns="http://www.w3.org/2000/svg" xmlns:xlink="http://www.w3.org/1999/xlink">
    <!-- Generator: Sketch 57.1 (83088) - https://sketch.com -->
    <title>wagely_google-playstore-badge</title>
    <desc>Created with Sketch.</desc>
    <g id="wagely_google-playstore-badge" stroke="none" stroke-width="1" fill="none" fill-rule="evenodd">
        <g>
            <path d="M133.849958,41 L5.15004231,41 C2.31163766,41 0,38.6892768 0,35.875 L0,5.125 C0,2.30049875 2.31163766,0 5.15004231,0 L133.849958,0 C136.685805,0 139,2.30049875 139,5.125 L139,35.875 C139,38.6892768 136.685805,41 133.849958,41 Z" id="Path" fill="#FFFFFF" fill-rule="nonzero"></path>
            <path d="M133.849958,0.820511222 C136.230638,0.820511222 138.179164,2.75548628 138.179164,5.125 L138.179164,35.875 C138.179164,38.2445137 136.243423,40.1794888 133.849958,40.1794888 L5.15004231,40.1794888 C2.76936238,40.1794888 0.82083594,38.2445137 0.82083594,35.875 L0.82083594,5.125 C0.82083594,2.75548628 2.75657677,0.820511222 5.15004231,0.820511222 C5.15004231,0.820511222 133.849958,0.820511222 133.849958,0.820511222 Z M133.849958,0 L5.15004231,0 C2.31163766,0 0,2.31072319 0,5.125 L0,35.875 C0,38.6995012 2.31163766,41 5.15004231,41 L133.849958,41 C136.685805,41 139,38.6995012 139,35.875 L139,5.125 C139,2.31072319 136.685805,0 133.849958,0 Z" id="Shape" fill="#FFFFFF"></path>
            <path d="M72.9027024,14 C71.9750846,14 71.1931259,13.7061319 70.5747141,13.1276514 C69.9614131,12.5653683 69.6189868,11.7902044 69.6343193,10.998843 C69.6343193,10.1542615 69.9511915,9.43925954 70.5747141,8.87234863 C71.1905705,8.29386811 71.9725292,8 72.9001469,8 C73.817543,8 74.5995017,8.29386811 75.2281352,8.87234863 C75.8516578,9.45777092 76.16853,10.1727728 76.16853,10.998843 C76.1583083,11.8457385 75.8414361,12.5607405 75.2281352,13.1253374 C74.6122788,13.7084458 73.8303201,14 72.9027024,14 Z M45.3016035,14 C44.3944292,14 43.6073596,13.7107597 42.9633936,13.139221 C42.3245384,12.5699961 42,11.8503664 42,11.001157 C42,10.1519476 42.3245384,9.43231778 42.9633936,8.86309294 C43.5945825,8.29155418 44.3816521,8.00231392 45.3016035,8.00231392 C45.7513576,8.00231392 46.1883345,8.0833012 46.6074235,8.24758966 C47.0188462,8.40725029 47.3536063,8.62475897 47.6014821,8.89086001 L47.6628122,8.95796375 L46.9702932,9.57346703 L46.8987415,9.4971076 C46.5077621,9.07597378 45.9839008,8.87003471 45.2913818,8.87003471 C44.67297,8.87003471 44.1337763,9.06903201 43.6891331,9.46239877 C43.2419345,9.85807944 43.014502,10.376398 43.014502,11.0034709 C43.014502,11.6305438 43.2419345,12.1488623 43.6891331,12.544543 C44.1337763,12.9379098 44.67297,13.1369071 45.2913818,13.1369071 C45.9506804,13.1369071 46.5052067,12.9379098 46.9370728,12.544543 C47.1926148,12.3131508 47.3510509,11.9892017 47.4072702,11.5796375 L45.1866096,11.5796375 L45.1866096,10.7142306 L48.3604421,10.7142306 L48.3732192,10.792904 C48.396218,10.9386811 48.4192168,11.089086 48.4192168,11.2279213 C48.4192168,12.0262245 48.153453,12.6718087 47.6270364,13.1484767 C47.0290679,13.7130737 46.2471092,14 45.3016035,14 Z M82,13.8773621 L81.0212739,13.8773621 L78.0237654,9.53413035 L78.0493196,10.316236 L78.0493196,13.8750482 L77.0705935,13.8750482 L77.0705935,8.12495179 L78.1873123,8.12495179 L78.2179774,8.16891631 L81.0366064,12.2599306 L81.0110522,11.4801388 L81.0110522,8.12495179 L82,8.12495179 L82,13.8773621 L82,13.8773621 Z M65.5482016,13.8773621 L64.5566984,13.8773621 L64.5566984,8.99035866 L62.8369003,8.99035866 L62.8369003,8.12495179 L67.2654443,8.12495179 L67.2654443,8.99035866 L65.5456462,8.99035866 L65.5456462,13.8773621 L65.5482016,13.8773621 Z M62.0293873,13.8773621 L61.0404395,13.8773621 L61.0404395,8.12495179 L62.0293873,8.12495179 L62.0293873,13.8773621 Z M56.4713473,13.8773621 L55.4823995,13.8773621 L55.4823995,8.99035866 L53.7626014,8.99035866 L53.7626014,8.12495179 L58.1911455,8.12495179 L58.1911455,8.99035866 L56.4713473,8.99035866 L56.4713473,13.8773621 Z M53.1365234,13.8681064 L49.3442791,13.8681064 L49.3442791,8.12495179 L53.1365234,8.12495179 L53.1365234,8.99035866 L50.3357823,8.99035866 L50.3357823,10.5684535 L52.8630933,10.5684535 L52.8630933,11.4246047 L50.3357823,11.4246047 L50.3357823,13.0026996 L53.1365234,13.0026996 L53.1365234,13.8681064 Z M71.3004536,12.5329734 C71.7425414,12.9332819 72.2791797,13.1345931 72.9027024,13.1345931 C73.5441129,13.1345931 74.0679742,12.9379098 74.5049511,12.5329734 C74.9393726,12.1396066 75.1591388,11.623602 75.1591388,11.001157 C75.1591388,10.3787119 74.9393726,9.86039337 74.5075065,9.46934053 C74.0654188,9.06903201 73.526225,8.86772079 72.9052578,8.86772079 C72.2638472,8.86772079 71.7399859,9.06440417 71.3055644,9.46934053 C70.8711429,9.86270729 70.6513767,10.3787119 70.6513767,11.001157 C70.6513767,11.623602 70.8685875,12.1419206 71.3004536,12.5329734 L71.3004536,12.5329734 Z" id="Shape" fill="#000000" fill-rule="nonzero"></path>
            <path d="M69.7873643,22.7135119 C67.3680664,22.7135119 65.407027,24.4978773 65.407027,26.9591568 C65.407027,29.3980384 67.3808669,31.2048016 69.7873643,31.2048016 C72.2066622,31.2048016 74.1677015,29.407993 74.1677015,26.9591568 C74.1677015,24.4978773 72.2066622,22.7135119 69.7873643,22.7135119 Z M69.7873643,29.5224711 C68.4637907,29.5224711 67.3245446,28.4573269 67.3245446,26.9492022 C67.3245446,25.4186795 68.4663508,24.3759332 69.7873643,24.3759332 C71.1109378,24.3759332 72.2501882,25.4186795 72.2501882,26.9492022 C72.252744,28.4672815 71.1109378,29.5224711 69.7873643,29.5224711 Z M60.2304976,22.7135119 C57.8111997,22.7135119 55.8501604,24.4978773 55.8501604,26.9591568 C55.8501604,29.3980384 57.8240002,31.2048016 60.2304976,31.2048016 C62.6497955,31.2048016 64.6108348,29.407993 64.6108348,26.9591568 C64.6108348,24.4978773 62.6472354,22.7135119 60.2304976,22.7135119 Z M60.2304976,29.5224711 C58.9069241,29.5224711 57.767678,28.4573269 57.767678,26.9492022 C57.767678,25.4186795 58.9094842,24.3759332 60.2304976,24.3759332 C61.5540712,24.3759332 62.6933172,25.4186795 62.6933172,26.9492022 C62.6933172,28.4672815 61.5540712,29.5224711 60.2304976,29.5224711 Z M48.8585175,24.010101 L48.8585175,25.8069097 L53.295177,25.8069097 C53.1594915,26.8148148 52.8164376,27.5589226 52.2916164,28.0690968 C51.6413501,28.701215 50.6377895,29.3880837 48.8687579,29.3880837 C46.1422476,29.3880837 44.0096813,27.2478407 44.0096813,24.5974235 C44.0096813,21.9470063 46.1422476,19.8067633 48.8687579,19.8067633 C50.3408175,19.8067633 51.4135009,20.3716879 52.2096931,21.0933977 L53.5204661,19.8192066 C52.4145014,18.7889035 50.9424418,18 48.8789983,18 C45.138687,18 42,20.961499 42,24.5874689 C42,28.2233934 45.1361269,31.1749378 48.8789983,31.1749378 C50.89892,31.1749378 52.4145014,30.5328649 53.6126298,29.3233787 C54.8337993,28.1362904 55.2203749,26.4614259 55.2203749,25.1100864 C55.2203749,24.6895037 55.1870935,24.3112282 55.1179708,23.9901918 L48.8559574,23.9901918 C48.8585175,23.9877031 48.8585175,24.010101 48.8585175,24.010101 Z M95.3730395,25.4087249 C95.0069446,24.4555702 93.9009799,22.7035573 91.6327281,22.7035573 C89.3849572,22.7035573 87.5160816,24.4232177 87.5160816,26.9492022 C87.5160816,29.3333333 89.3644764,31.194847 91.8503369,31.194847 C93.8472177,31.194847 95.0095048,30.0077587 95.4882441,29.3109354 L94.0059441,28.3453374 C93.5144043,29.054604 92.8308566,29.5199824 91.8605773,29.5199824 C90.8800577,29.5199824 90.1939499,29.0869565 89.7382515,28.233348 L95.5778477,25.8815693 C95.5778477,25.884058 95.3730395,25.4087249 95.3730395,25.4087249 Z M89.4182385,26.8272581 C89.3721567,25.1872347 90.7290116,24.3535354 91.6992908,24.3535354 C92.4647618,24.3535354 93.1022276,24.7193676 93.3198364,25.2519397 L89.4182385,26.8272581 Z M84.6743666,30.9410042 L86.5918842,30.9410042 L86.5918842,18.4678671 L84.6743666,18.4678671 L84.6743666,30.9410042 Z M81.5254392,23.656712 L81.4563164,23.656712 C81.0236589,23.1564925 80.2018656,22.7035573 79.1522232,22.7035573 C76.973575,22.7035573 74.9664538,24.5675597 74.9664538,26.9616454 C74.9664538,29.3457766 76.9633346,31.1873811 79.1522232,31.1873811 C80.1890651,31.1873811 81.0236589,30.7319573 81.4563164,30.221783 L81.5254392,30.221783 L81.5254392,30.8315034 C81.5254392,32.4516176 80.6345231,33.3251354 79.198305,33.3251354 C78.0232175,33.3251354 77.293588,32.5038794 76.996616,31.8170107 L75.3299885,32.4939248 C75.8087279,33.6138194 77.0862196,35 79.1957449,35 C81.4435159,35 83.3482329,33.7133655 83.3482329,30.575172 L83.3482329,22.9574001 L81.5356796,22.9574001 L81.5356796,23.656712 C81.5382397,23.656712 81.5254392,23.656712 81.5254392,23.656712 Z M79.3237501,29.5224711 C78.0001766,29.5224711 76.8942118,28.4473723 76.8942118,26.9616454 C76.8942118,25.4634753 78.0001766,24.3784219 79.3237501,24.3784219 C80.6345231,24.3784219 81.6508843,25.4759186 81.6508843,26.9616454 C81.6636848,28.4473723 80.6370832,29.5224711 79.3237501,29.5224711 Z M104.351323,18.4678671 L99.7661772,18.4678671 L99.7661772,30.9410042 L101.683695,30.9410042 L101.683695,26.2175377 L104.353883,26.2175377 C106.476209,26.2175377 108.562693,24.7218562 108.562693,22.3476797 C108.562693,19.9735031 106.483889,18.4678671 104.351323,18.4678671 Z M104.407645,24.4754794 L101.681135,24.4754794 L101.681135,20.1949934 L104.407645,20.1949934 C105.843863,20.1949934 106.655416,21.3472405 106.655416,22.3352364 C106.655416,23.3132777 105.833623,24.4754794 104.407645,24.4754794 Z M116.248124,22.691114 C114.855428,22.691114 113.41921,23.2908798 112.825266,24.5974235 L114.525174,25.2842922 C114.891269,24.5974235 115.562016,24.36349 116.271165,24.36349 C117.264485,24.36349 118.268046,24.9408579 118.291087,25.9711609 L118.291087,26.1030596 C117.948033,25.9139218 117.195362,25.6252379 116.294206,25.6252379 C114.458612,25.6252379 112.597416,26.6007905 112.597416,28.4299517 C112.597416,30.1048163 114.102757,31.1799151 115.779625,31.1799151 C117.067357,31.1799151 117.776506,30.6149905 118.219404,29.9604743 L118.288527,29.9604743 L118.288527,30.9260723 L120.136921,30.9260723 L120.136921,26.1478554 C120.136921,23.9229981 118.437013,22.691114 116.248124,22.691114 Z M116.007474,29.5224711 C115.380249,29.5224711 114.502133,29.2238325 114.502133,28.4573269 C114.502133,27.4917289 115.597858,27.1258966 116.532296,27.1258966 C117.37713,27.1258966 117.776506,27.3025911 118.278286,27.5464793 C118.140041,28.6663739 117.167201,29.5125165 116.007474,29.5224711 Z M126.880234,22.9574001 L124.678545,28.3677353 L124.609422,28.3677353 L122.32837,22.9574001 L120.264927,22.9574001 L123.687785,30.5204216 L121.736986,34.7237593 L123.733867,34.7237593 L129,22.9574001 C129,22.9574001 126.880234,22.9574001 126.880234,22.9574001 Z M109.620016,30.9410042 L111.537533,30.9410042 L111.537533,18.4678671 L109.620016,18.4678671 L109.620016,30.9410042 Z" id="Shape" fill="#000000"></path>
            <g id="Group-2" transform="translate(11.000000, 9.000000)" fill="#000000" fill-rule="nonzero">
                <path d="M0,22.3582291 L0,1.64418347 C0,0.921348566 0.418765259,0.296527656 1.02646555,0 L13,11.9976727 L1.02165006,24 C0.416552079,23.7025707 0,23.0791997 0,22.3582291 Z" id="Path"></path>
                <polygon id="Path" points="17 15.6794799 4 23 14.2527864 13"></polygon>
                <path d="M21.2309973,10.5733478 C21.6984559,10.902043 22,11.4199687 22,12.0025303 C22,12.5763378 21.7075936,13.0873083 21.2521446,13.416603 L18.2668581,15 L15,11.9990526 L18.264639,9 L21.2309973,10.5733478 Z" id="Path"></path>
                <polygon id="Path" points="4 1 17 8.32053559 14.2527953 11"></polygon>
            </g>
        </g>
    </g>
</svg>